<?xml version="1.0" encoding="utf-8"?>
<!-- Generator: Adobe Illustrator 27.5.0, SVG Export Plug-In . SVG Version: 6.00 Build 0)  -->
<svg version="1.1" id="Layer_1" xmlns="http://www.w3.org/2000/svg" xmlns:xlink="http://www.w3.org/1999/xlink" x="0px" y="0px"
	 viewBox="0 0 900 900" style="enable-background:new 0 0 900 900;display:none;" xml:space="preserve">
<g style="display:inline;opacity:0.37;">
	<path style="fill:#8A829E;" d="M813.347,726.275c0-2.971-2.834-5.401-6.298-5.401H103.645c-3.464,0-6.298,2.43-6.298,5.401
		c0,2.971,2.834,5.401,6.298,5.401h703.404C810.513,731.676,813.347,729.245,813.347,726.275z"/>
</g>
<path style="display:inline;fill:#6D463A;" d="M482.68,668.552c5.933,2.924,27.753-17.547,27.667-13.75
	c-0.25,11,3.875,46.5-0.875,46.5c-2.294,0-29.458-2.918-29.458-2.918L482.68,668.552z"/>
<path style="display:inline;fill:#6D463A;" d="M371.347,669.302c5.933,2.924,30.257-2.103,27.75,0.75
	c-7.25,8.25,0.25,31.25-6.125,31.25c-2.294,0-32.125-1.5-32.125-1.5L371.347,669.302z"/>
<g style="display:inline;">
	<path style="fill:#79684E;" d="M519.977,718.102c-0.03,5.16-0.64,8.77-2,8.89c1.38-4.28-80-1.98-80.35-1.99
		c-3.2-0.01-8.45-0.41-8.63-6.7c-0.01-0.47,0-0.92,0.02-1.34c0.08-1.58,0.4-2.92,0.91-4.04c2.27-5.03,6.44-5.71,11.08-6.04
		c1.1-0.08,2.14-0.13,3.04-0.23c1.95-0.21,3.66-0.61,5.19-1.19c0.33-0.12,0.64-0.24,0.95-0.38c1.17-0.51,2.24-1.12,3.25-1.8
		l0.01-0.01c0.65-0.44,1.26-0.9,1.88-1.4l0.01-0.01c0.55-0.44,1.1-0.91,1.64-1.4c1.17-1.04,2.33-2.17,3.57-3.34
		c0.4-0.39,0.81-0.78,1.23-1.18c0.61-0.57,1.24-1.16,1.9-1.75c0.21-0.18,0.41-0.37,0.61-0.55c0.02-0.02,0.03-0.03,0.05-0.05
		c0.91-0.84,1.72-1.68,2.44-2.49c0.24-0.28,0.48-0.55,0.7-0.82c0.85-1.02,1.57-2.01,2.19-2.96h0.01c0.19-0.3,0.37-0.59,0.55-0.88
		c0.07-0.12,0.15-0.25,0.22-0.37c0.45-0.77,0.85-1.51,1.22-2.23c2-3.95,3.03-7.07,6.59-9.09c4.21-2.37,17.11-2.31,19.65,2.46
		c0.16,0.31,0.3,0.63,0.42,0.99c0.65,1.92,0.73,6.22,1.47,9.86c0.54,2.7,1.47,4.95,3.18,5.79c7.87,3.82,8.22-1.7,8.51-6.21
		c-0.01-0.01-0.01-0.01-0.01-0.02c0.23-3.92-0.57-8.01-0.57-8.01c2.73,0.05,5.18,7.29,6.85,16.09c0.06,0.31,0.09,0.56,0.13,0.75
		c0.96,5.34,1.66,11.18,1.94,16.31C519.927,714.662,519.987,716.452,519.977,718.102z"/>
	<path style="fill:#FFE9CF;" d="M471.957,706.282c-7.24-1.84-14.49-2.1-21.83-0.73c-0.33,0.06-0.64,0.02-0.89-0.09
		c0.33-0.12,0.64-0.24,0.95-0.38c1.17-0.51,2.24-1.12,3.25-1.8l0.01-0.01c0.65-0.44,1.26-0.9,1.88-1.4l0.01-0.01
		c5.84-0.44,11.64,0.06,17.42,1.53C474.627,703.872,473.837,706.762,471.957,706.282z"/>
	<path style="fill:#FFE9CF;" d="M478.667,698.522c-5.96-2.02-11.98-2.52-18.12-1.4c0.4-0.39,0.81-0.78,1.23-1.18
		c0.61-0.57,1.24-1.16,1.9-1.75c0.21-0.18,0.41-0.37,0.61-0.55c5.11-0.36,10.19,0.29,15.18,1.99
		C481.287,696.252,480.497,699.152,478.667,698.522z"/>
	<path style="fill:#FFE9CF;" d="M485.257,690.182c-5.75-2.63-12.08-2.58-17.78,0.1c0.85-1.02,1.57-2.01,2.19-2.96h0.01
		c0.19-0.3,0.37-0.59,0.55-0.88c0.07-0.12,0.15-0.25,0.22-0.37c5.42-1.42,11.01-0.91,16.32,1.52
		C488.527,688.392,486.997,690.982,485.257,690.182z"/>
	<path style="fill:#E0A565;" d="M519.974,718.099c-0.028,5.168,0.209,8.896-2.003,8.896c-2.211,0-80.551,0-82.845,0
		s-5.947-2.401-6.129-8.694c-0.012-0.466-0.006-0.916,0.022-1.337C446.468,716.777,519.974,718.099,519.974,718.099z"/>
	<path style="fill:#79684E;" d="M403.297,718.102c-0.03,5.16-0.63,8.77-2,8.89c1.39-4.28-77-1.98-77.34-1.99
		c-3.2-0.01-8.45-0.41-8.63-6.7c-0.02-0.47-0.01-0.92,0.02-1.34c0.08-1.58,0.4-2.92,0.9-4.04c2.28-5.03,6.44-5.71,11.08-6.04
		c1.11-0.08,2.15-0.13,3.04-0.23c2.37-0.26,4.36-0.79,6.14-1.57c0.37-0.16,0.73-0.33,1.08-0.52c0.76-0.38,1.48-0.82,2.18-1.28v-0.01
		c0.62-0.42,1.22-0.86,1.8-1.33c0.59-0.47,1.16-0.96,1.74-1.48c0.75-0.67,1.5-1.37,2.27-2.11c0.81-0.77,1.64-1.58,2.53-2.41
		c0.23-0.22,0.46-0.44,0.7-0.66c0.39-0.36,0.78-0.72,1.2-1.09c0.22-0.2,0.44-0.4,0.65-0.6c0.92-0.84,1.72-1.68,2.44-2.49
		c0.04-0.04,0.08-0.09,0.11-0.13c0.91-1.03,1.68-2.03,2.34-2.99c0.15-0.22,0.3-0.44,0.44-0.66h0.01c0.19-0.3,0.37-0.59,0.55-0.88
		c0.54-0.9,1.01-1.77,1.44-2.6c2.01-3.95,3.03-7.07,6.6-9.09c4.2-2.37,9.11-2.31,11.64,2.46c0.16,0.31,0.31,0.63,0.43,0.99
		c0.64,1.92,0.73,6.22,1.47,9.86c0.54,2.7,1.44,5.03,3.18,5.79c5.86,2.54,13.71,2.03,13.5-6.21c0-0.01,0-0.01-0.01-0.02
		c0.24-3.92,0.3-7.57,0.3-7.57c2.73,0.05,4.32,6.85,5.98,15.65c0.06,0.31,0.1,0.56,0.13,0.75c0.97,5.34,1.66,11.18,1.94,16.31
		C403.257,714.662,403.307,716.452,403.297,718.102z"/>
	<path style="fill:#E0A565;" d="M403.299,718.099c-0.028,5.168,0.209,8.896-2.002,8.896c-2.211,0-77.551,0-79.845,0
		c-2.294,0-5.947-2.401-6.129-8.694c-0.012-0.466-0.006-0.916,0.022-1.337C332.793,716.777,403.299,718.099,403.299,718.099z"/>
	<path style="fill:#FFE9CF;" d="M349.337,705.542c-3.77-0.29-7.55-0.58-11.32-0.88c-0.16-0.01-0.3-0.04-0.43-0.1
		c0.76-0.38,1.48-0.82,2.18-1.28v-0.01c0.62-0.42,1.22-0.86,1.8-1.33c2.59,0.2,5.18,0.4,7.77,0.6
		C351.247,702.692,351.257,705.692,349.337,705.542z"/>
	<path style="fill:#FFE9CF;" d="M354.597,699.382c-3-0.98-6-1.32-9.02-1.03c0.81-0.77,1.64-1.58,2.53-2.41
		c0.23-0.22,0.46-0.44,0.7-0.66c2.22,0.1,4.42,0.5,6.59,1.21C357.227,697.082,356.437,699.982,354.597,699.382z"/>
	<path style="fill:#FFE9CF;" d="M364.007,690.912c-3.6,0.06-7.2,0.09-10.8,0.06c0.91-1.03,1.68-2.03,2.34-2.99
		c2.82,0,5.64-0.02,8.46-0.07C365.947,687.872,365.937,690.882,364.007,690.912z"/>
</g>
<line style="display:inline;fill:none;stroke:#B7BEBC;stroke-width:13;stroke-linejoin:round;stroke-miterlimit:10;" x1="667.841" y1="573.457" x2="677.394" y2="723.283"/>
<path style="display:inline;fill:none;stroke:#7F8593;stroke-width:13;stroke-linejoin:round;stroke-miterlimit:10;" d="
	M570.957,576.59l0.942-15.249c0-5.55,4.499-10.05,10.05-10.05h70.279c8.376,0,15.167,6.79,15.167,15.167l0.446,6.998"/>
<line style="display:inline;fill:none;stroke:#B7BEBC;stroke-width:13;stroke-linejoin:round;stroke-miterlimit:10;" x1="561.898" y1="723.283" x2="570.957" y2="576.59"/>
<path style="display:inline;fill:none;stroke:#7F8593;stroke-width:13;stroke-linejoin:round;stroke-miterlimit:10;" d="
	M410.406,723.283l10-161.942c0-5.55,4.499-10.05,10.05-10.05h70.279c8.377,0,15.167,6.79,15.167,15.167l10,156.824"/>
<g style="display:inline;">
	<g>
		<path style="fill:#B8CC27;" d="M678.158,524.064c0.929,6.044-3.292,11.456-9.38,12.027l-118.07,11.086
			c-6.088,0.572-11.249-3.96-11.47-10.071l-1.729-47.866c-0.221-6.11,0.708-15.988,2.063-21.95l18.667-82.116
			c1.355-5.962,7.303-12.111,13.217-13.663l63.199-16.59c5.914-1.552,15.755-2.823,21.87-2.823h12.99
			c6.114,0,10.74,4.988,10.279,11.085l-7.855,103.862c-0.461,6.097-0.079,16.03,0.85,22.073L678.158,524.064z"/>
	</g>
	<g>
		<path style="fill:#73913F;" d="M657.947,488.092c0.688,5.478,1.871,14.924,2.631,20.991l2.058,16.438
			c0.76,6.067-3.604,11.445-9.698,11.952l-81.512,6.778c-6.093,0.507-16.064,1.335-22.158,1.841l-14.452,1.2
			c-6.093,0.506-11.259-4.079-11.48-10.19l-1.728-47.86c-0.221-6.11,0.52-16.027,1.645-22.037l19.508-104.176
			c1.125-6.01,7.049-10.927,13.163-10.927H657.11c6.114,0,10.661,4.982,10.104,11.071l-9.504,103.889
			C657.153,473.15,657.259,482.614,657.947,488.092z"/>
	</g>
	<path style="opacity:0.55;fill:#56662D;" d="M664.017,536.552l-103.67,8.62v-114.12h61.318c6.176,0,11.182,5.007,11.182,11.182
		v44.635c0,6.176,5.007,11.182,11.182,11.182h15.167L664.017,536.552z"/>
	<polygon style="fill:#6B823A;" points="569.847,548.216 448.548,548.216 448.548,527.674 665.226,527.674 	"/>
	<path style="fill:#B8CC27;" d="M589.167,548.216c0,0,64.768,0,76.143,0c14.634,0,14.634-12.937,13.801-18.346
		c-0.631-4.102-1.318-8.253-1.318-8.253l-4.507,6.057H596.68c0,0-16.846-1.788-16.846,11.878
		C579.833,547.885,589.167,548.216,589.167,548.216z"/>
	<g>
		<path style="fill:#6B823A;" d="M564.347,568.139H429.398v-10c0-16.458,13.39-29.848,29.848-29.848h116.601v20l0,0
			c-5.43,0-11.5,4.418-11.5,9.848V568.139z"/>
	</g>
	<polygon style="fill:#56662D;" points="629.68,359.219 648.347,422.219 614.68,427.885 608.347,360.219 	"/>
</g>
<polygon style="display:inline;fill:#B7BEBC;" points="773.747,448.76 793.747,725.919 779.073,725.919 759.073,448.76 "/>
<polygon style="display:inline;fill:#B7BEBC;" points="697.195,448.76 717.195,725.919 702.51,725.919 682.51,448.76 "/>
<g style="display:inline;">
	<g>
		
			<polyline style="fill:none;stroke:#FFA788;stroke-width:22;stroke-linecap:round;stroke-linejoin:round;stroke-miterlimit:10;" points="
			513.133,352.225 486.29,427.103 448.01,424.103 		"/>
		<polygon style="fill:#F58D6C;" points="496.68,365.552 513.013,384.885 519.18,367.885 497.847,362.885 		"/>
		<path style="fill:#19A3DC;" d="M624.147,318.022l-0.3,163.78c0,13.07-10.3,45.13-23.37,45.13h-71.01
			c-12.76,0-20.19-10.14-20.6-22.89c0-0.02,5-0.04,5-0.05c-0.14-3.87,0.11-23.56,0.52-48.44c0.48-29.81,1.19-67.07,1.7-93.5
			c0.39-19.78-2.33-33.5-2.33-33.5c0-14.65,8.75-33.54,27.27-41.04c5.13-2.08,11-3.29,17.65-3.29l23.34,0.57
			c0.75-0.01,1.52,0.01,2.31,0.06c14.98,0.9,35.27,11.29,38.88,25.64C623.817,312.912,624.147,315.432,624.147,318.022z"/>
		<path style="fill:#FFFFFF;" d="M584.437,285.402l-0.75,1.74c-0.35,0.81-8.78,19.91-24.72,19.91c-6.64,0-10.57-2.63-12.71-4.84
			c-3.65-3.79-4.27-8.51-4.36-10.51c0,0-1.05-4.275,4.203-5.887c3.795-1.165,8.023-1.593,12.577-1.593l23.34,0.57
			c0.75-0.01,1.52,0.01,2.31,0.06L584.437,285.402z"/>
		<polygon style="opacity:0.52;fill:#267099;" points="624.147,355.052 624.147,429.882 608.347,431.552 608.347,346.052 		"/>
		<g>
			<path style="fill:#19A3DC;" d="M537.817,332.862l-8.99,25c-2.45,6.81-2.64,14.69-9.48,14.69c-0.66,0-1.76-0.2-3-0.5h-0.02
				c-2.31-0.54-5.08-1.39-6.29-1.82c-6.38-2.3-13.065-8.055-13.065-8.055s-1.445-3.005-0.625-5.295c0,0,0.73-1.75,1.95-4.64
				c4.14-9.79,13.99-32.61,20.55-44.19c8.5-15,5.5-2.28,14.17,0.83C541.677,312.002,540.927,324.192,537.817,332.862z"/>
			<path style="fill:#FFFFFF;" d="M516.097,361.142c0,0.3,0,0.61-0.01,0.91c-0.06,3.15-0.13,6.46-0.19,9.89
				c-2.21-0.53-4.72-1.31-5.86-1.71c-6.38-2.3-16.19-6.93-16.19-6.93s1.68-4.13,2.5-6.42c0,0,0.03-0.44,1.25-3.33L516.097,361.142z"
				/>
		</g>
		<path style="fill:none;stroke:#FFA788;stroke-width:22;stroke-linecap:round;stroke-linejoin:round;stroke-miterlimit:10;" d="
			M626.407,348.328c13.264,33.236,23.191,79.922,23.191,79.922h-52.433"/>
		<g>
			<path style="fill:#19A3DC;" d="M648.097,358.802l-32,9.75c0,0-1.15-3.25-2.47-6.86c-0.94-2.54-1.95-5.28-2.71-7.18
				c-9.62-24.11-15.84-30.81-17.51-32.29c-6.91-6.09-7.57-16.63-1.48-23.53c6.09-6.91,16.68-6.92,23.42-0.64
				c9.67,9,17.46,21.33,26.55,44.09c0.94,2.34,2.02,5.23,3.03,7.94C646.637,354.702,648.097,358.802,648.097,358.802z"/>
		</g>
		<g>
			<path style="fill:#FFB287;" d="M547.878,291.018c0,0-0.365,10.035,11.094,10.035c12.173,0,19.208-16.293,19.208-16.293
				l-6.357-30.813l-32-1.752L547.878,291.018z"/>
			<path style="fill:#E5785C;" d="M546.232,283.086c8.5,1.013,31.057-2.463,29.927-7.909c-1.13-5.446-5.969-29.102-5.969-29.102
				l-31.592,0.214L546.232,283.086z"/>
			<path style="fill:#E5785C;" d="M516.625,234.208c0,7.286,6.349,24.078,10.29,29.102c1.681,2.143,4.001,7.011,9.337,8.628
				c4.854,1.471,8.345,2.677,9.033,6.302c0.53,2.796,4.668-3.843,6.708-3.843c24.249,0,36.235-26.121,36.235-43.916l-7.473-23.344
				c0-19.481-12.929-33.484-31.747-33.34c-18.818,0.144-33.969,12.975-33.969,32.456L516.625,234.208z"/>
		</g>
		<path style="fill:#FFA788;" d="M440.619,430.883c-8.948,0-11.049,0-17.116,0c-6.066,0-10.998,0.658-10.998-5.082
			c0-5.739,3.243-12.508,16.857-12.508c13.614,0,8.185,0,15.65,0C452.479,413.294,449.567,430.883,440.619,430.883z"/>
	</g>
	<path style="fill:#267099;" d="M624.147,455.552v47.72c0,13.07-10.6,23.66-23.67,23.66h-71.01c-12.76,0-20.19-10.14-20.6-22.89
		c0-0.02,5-0.04,5-0.05c-0.14-3.87,0.11-23.56,0.52-48.44H624.147z"/>
</g>
<polygon style="display:inline;fill:#7F8593;" points="267.818,450.862 247.818,725.919 233.143,725.919 253.143,450.862 "/>
<polygon style="display:inline;fill:#B7BEBC;" points="192.378,450.862 172.378,725.919 157.703,725.919 177.703,450.862 "/>
<g style="display:inline;">
	<path style="fill:#363550;" d="M405.853,674.154c0.078-0.369,6.685-23.83,17.104-63.17c14.807-55.91,24.06-76.321,28.098-83.383
		h68.559c11.358,0,20.567-9.208,20.567-20.566c0-11.359-9.208-24.011-20.567-24.011h-79.611c-31.869,0-33.777,29.804-39.416,43.965
		c-6.109,15.339-39.498,133.912-39.884,135.736c-1.139,5.375,7.762,9.809,17.487,11.859
		C388.568,676.771,404.795,679.148,405.853,674.154z"/>
</g>
<path style="display:inline;fill:#3E425B;" d="M512.56,482.783c-6.894,0-19.613,6.645-25.203,26.474
	c-1.63,5.78-3.034,13.504-4.295,23.612c-1.943,15.593-3.556,37.137-4.793,64.032c-2.083,45.286-3.669,72.193-3.672,72.651
	c-0.037,5.621,48.024,9.958,48.063,4.244c0.002-0.377,1.27-23.167,2.88-63.567c1.941-48.748,4.611-71.856,6.486-82.628h71.321
	c11.56,0,20.932-12.325,20.932-23.885v-20.932H512.56z"/>
<path style="display:inline;opacity:0.4;fill:#754559;" d="M642.595,403.67c0.322,0.289,0.523,0.478,0.589,0.544
	C643.04,404.026,642.84,403.837,642.595,403.67z"/>
<path style="display:inline;opacity:0.4;fill:#754559;" d="M619.672,400.302l-0.878-0.033
	C619.05,400.29,619.339,400.302,619.672,400.302z"/>
<g style="display:inline;">
	
		<line style="fill:none;stroke:#FFA788;stroke-width:7.4346;stroke-linecap:round;stroke-linejoin:round;stroke-miterlimit:10;" x1="575.769" y1="405.804" x2="558.528" y2="399.329"/>
	<g>
		<g>
			<polygon style="fill-rule:evenodd;clip-rule:evenodd;fill:#EDDFBC;" points="571.438,388.425 571.329,389.829 571.042,393.576 
				570.686,398.28 568.38,428.432 567.628,438.322 536.957,438.322 536.898,437.607 536.443,432.581 536.265,430.56 
				536.077,428.432 541.597,425.302 542.847,422.052 540.347,416.302 533.414,398.28 533.009,393.576 532.672,389.829 
				532.504,387.951 			"/>
			<rect x="534.406" y="377.824" style="fill-rule:evenodd;clip-rule:evenodd;fill:#EDDFBC;" width="35.133" height="3.445"/>
			<path style="fill-rule:evenodd;clip-rule:evenodd;fill:#F2E9D1;" d="M573.557,381.269v8.565h-43.17v-8.565H573.557z"/>
			<polygon style="fill-rule:evenodd;clip-rule:evenodd;fill:#EA4B4B;" points="570.687,398.278 568.384,428.435 536.078,428.435 
				533.417,398.278 			"/>
		</g>
		<path style="fill-rule:evenodd;clip-rule:evenodd;fill:#B2A88D;" d="M532.675,389.833l0.238,2.745h38.208l0.21-2.745H532.675z"/>
		<polygon style="opacity:0.4;fill-rule:evenodd;clip-rule:evenodd;fill:#8271A8;" points="569.539,381.267 569.539,377.826 
			561.979,377.826 561.979,381.267 564.84,381.267 564.84,389.833 563.255,389.833 563.105,392.578 563.051,393.578 
			562.796,398.278 561.157,428.435 560.618,438.323 567.627,438.323 568.384,428.435 570.687,398.278 571.044,393.578 
			571.121,392.578 571.331,389.833 573.558,389.833 573.558,381.267 		"/>
		<g>
			<polygon style="fill-rule:evenodd;clip-rule:evenodd;fill:#FFFFFF;" points="540.14,377.824 540.14,381.269 543.814,381.269 
				551.971,381.269 551.971,377.824 			"/>
			<polygon style="opacity:0.6;fill-rule:evenodd;clip-rule:evenodd;fill:#FFFFFF;" points="540.14,381.269 537.914,381.269 
				537.914,389.833 543.814,389.833 543.814,381.269 			"/>
			<polygon style="opacity:0.4;fill-rule:evenodd;clip-rule:evenodd;fill:#FFFFFF;" points="545.493,398.278 545.264,393.578 
				545.215,392.578 545.214,392.578 539.315,392.578 539.363,393.578 539.592,398.278 541.066,428.435 541.551,438.323 
				547.452,438.323 546.967,428.435 			"/>
		</g>
		<polygon style="opacity:0.66;fill-rule:evenodd;clip-rule:evenodd;fill:#8271A8;" points="543.347,411.552 545.18,415.052 
			544.847,422.219 547.68,427.385 546.847,431.052 554.347,437.385 567.68,437.385 569.013,420.552 555.347,407.885 		"/>
	</g>
	<g>
		
			<line style="fill:none;stroke:#FFA788;stroke-width:7.4346;stroke-linecap:round;stroke-linejoin:round;stroke-miterlimit:10;" x1="593.295" y1="422.884" x2="575.769" y2="405.804"/>
		<g>
			<path style="fill:#FFA788;" d="M591.786,437.504l-17.067-1.887c-0.904-0.107-0.103-2.179-0.906-2.499
				c1.45-4.22,4.27-12.223,4.27-12.223s1.982-12.257,2.931-15.178l16.578,15.566C600.716,423.37,608.875,438.999,591.786,437.504z"
				/>
			<g>
				<path style="fill:#FFA788;" d="M587.107,426.113c0.369,5.911-4.153,10.288-10.049,9.727l-9.216-0.878
					c-5.896-0.561-10.296-5.848-9.779-11.748l0.609-6.937c0.518-5.9,5.765-10.268,11.661-9.706l4.928,0.469
					c5.896,0.561,11.022,5.857,11.391,11.768L587.107,426.113z"/>
			</g>
			
				<line style="fill:none;stroke:#FFBB99;stroke-width:8.0015;stroke-linecap:round;stroke-miterlimit:10;" x1="559.597" y1="410.115" x2="546.013" y2="409.219"/>
			
				<line style="fill:none;stroke:#FFA788;stroke-width:8.8936;stroke-linecap:round;stroke-miterlimit:10;" x1="576.294" y1="411.944" x2="560.953" y2="410.599"/>
			
				<line style="fill:none;stroke:#FFBB99;stroke-width:8.0015;stroke-linecap:round;stroke-miterlimit:10;" x1="561.48" y1="419.99" x2="545.513" y2="418.219"/>
			
				<line style="fill:none;stroke:#FFA788;stroke-width:8.8936;stroke-linecap:round;stroke-miterlimit:10;" x1="570.396" y1="420.647" x2="561.491" y2="419.868"/>
			
				<line style="fill:none;stroke:#FFBB99;stroke-width:8.0015;stroke-linecap:round;stroke-miterlimit:10;" x1="564.026" y1="429.737" x2="548.513" y2="428.052"/>
			
				<line style="fill:none;stroke:#FFA788;stroke-width:8.8936;stroke-linecap:round;stroke-miterlimit:10;" x1="573.86" y1="430.506" x2="564.031" y2="429.672"/>
		</g>
	</g>
</g>
<g style="display:inline;">
	<path style="fill:#3D424C;" d="M423.927,428.982v4.8c0,2.4-1.96,4.37-4.37,4.37h-118.09c-2.4,0-4.36-1.97-4.36-4.37v-4.8
		c0-2.4,1.96-4.36,4.36-4.36h118.09C421.967,424.622,423.927,426.582,423.927,428.982z"/>
	<path style="fill:#33383F;" d="M415.347,425.882l-14.05,12.27h-99.83c-2.4,0-4.36-1.97-4.36-4.37v-4.8c0-2.4,1.96-4.36,4.36-4.36
		h111.33L415.347,425.882z"/>
	<path style="fill:#575E70;" d="M487.603,433.785c0,2.402-1.965,4.367-4.367,4.367h-61.807c-2.402,0-4.367-1.965-4.367-4.367v-4.799
		c0-2.402,1.965-4.367,4.367-4.367l61.807,0c2.402,0,4.367,1.965,4.367,4.367V433.785z"/>
	<g style="opacity:0.4;">
		<path style="fill:#754559;" d="M438.187,434.59c0,1.024-0.838,1.862-1.862,1.862l-8.506,0c-1.024,0-1.862-0.838-1.862-1.862
			v-2.046c0-1.024,0.838-1.862,1.862-1.862l8.506,0c1.024,0,1.862,0.838,1.862,1.862V434.59z"/>
	</g>
	<g style="opacity:0.7;">
		<path style="fill:#3B2D3C;" d="M438.187,432.138c0,1.024-0.838,1.862-1.862,1.862l-6.642,0c-1.024,0-1.862-0.838-1.862-1.862
			v-2.046c0-1.024,0.838-1.862,1.862-1.862l6.642,0c1.024,0,1.862,0.838,1.862,1.862V432.138z"/>
	</g>
	<g style="opacity:0.7;">
		<path style="fill:#3B2D3C;" d="M436.323,432.138c0,1.024-0.838,1.862-1.862,1.862l-6.642,0c-1.024,0-1.862-0.838-1.862-1.862
			v-2.046c0-1.024,0.838-1.862,1.862-1.862l6.642,0c1.024,0,1.862,0.838,1.862,1.862V432.138z"/>
	</g>
	<path style="fill:#DEDEE2;" d="M437.515,432.138c0,1.024-0.838,1.862-1.862,1.862l-6.642,0c-1.024,0-1.862-0.838-1.862-1.862
		v-2.046c0-1.024,0.838-1.862,1.862-1.862l6.642,0c1.024,0,1.862,0.838,1.862,1.862V432.138z"/>
	<path style="fill:#FFFFFF;" d="M440.834,432.138c0,1.024-0.838,1.862-1.862,1.862l-6.642,0c-1.024,0-1.862-0.838-1.862-1.862
		l0-2.046c0-1.024,0.838-1.862,1.862-1.862l6.642,0c1.024,0,1.862,0.838,1.862,1.862V432.138z"/>
</g>
<g style="display:inline;">
	<path style="fill:#FF950E;" d="M658.347,458.975h142.157c5.94,0,10.756-4.815,10.756-10.756v-0.003
		c0-5.94-4.815-10.756-10.756-10.756H641.347c-5.94,0-14.667,4.815-14.667,10.756l3.911,0.003
		C630.591,454.16,652.406,458.975,658.347,458.975z"/>
	<path style="fill:#C14721;" d="M146.239,448.221L146.239,448.221c0,5.94,4.815,10.756,10.756,10.756h505.668
		c5.94,0,10.756-4.816,10.756-10.756l0,0c0-5.94-4.815-10.756-10.756-10.756H156.994
		C151.054,437.466,146.239,442.281,146.239,448.221z"/>
</g>
<path style="display:inline;fill:none;stroke:#B8CC27;stroke-width:20;stroke-linecap:round;stroke-linejoin:round;stroke-miterlimit:10;" d="
	M561.898,558.139c0-10.961,9.282-20.254,21.282-20.254h17.167"/>
<g style="display:inline;">
	<path style="fill:#434A54;" d="M417.885,421.279c0.266,2.387-1.483,4.34-3.884,4.34H297.142c-2.402,0-4.584-1.953-4.85-4.34
		l-12.427-111.74c-0.265-2.387,1.483-4.34,3.884-4.34h116.858c2.402,0,4.584,1.953,4.85,4.34L417.885,421.279z"/>
	<path style="fill:#5F6777;" d="M419.191,422.51c0.186,1.71-0.968,3.109-2.564,3.109c-1.596,0-3.055-1.399-3.241-3.109
		l-3.631-33.337c-0.186-1.71-0.491-4.508-0.676-6.218l-3.328-30.654c-0.186-1.71-0.39-3.587-0.454-4.172
		c-0.064-0.585-0.269-2.462-0.456-4.171l-1.141-10.45c-0.187-1.71-0.491-4.508-0.677-6.218l-2.061-18.98
		c-0.186-1.71,0.969-3.109,2.565-3.109c1.596,0,3.054,1.399,3.238,3.109l0.465,4.306c0.185,1.71,0.391,3.617,0.459,4.237
		c0.068,0.621,0.276,2.527,0.462,4.237l1.828,16.826c0.186,1.71,0.423,3.898,0.527,4.863s0.342,3.153,0.528,4.863l3.194,29.271
		c0.187,1.71,0.491,4.508,0.678,6.218L419.191,422.51z"/>
	<path style="fill:#676D7C;" d="M355.552,368.036c0.7,5.521-3.209,9.997-8.73,9.997c-5.521,0-10.564-4.476-11.264-9.997
		c-0.7-5.521,3.209-9.997,8.73-9.997C349.809,358.039,354.852,362.514,355.552,368.036z"/>
</g>
<polygon style="display:inline;fill:#F58D6C;" points="622.013,369.052 645.347,368.719 641.013,355.552 619.513,361.885 "/>
<path style="display:inline;fill:#FFFFFF;" d="M648.097,358.802l-32,9.75l-3.333-9.042l32.163-9.428
	C646.637,354.702,648.097,358.802,648.097,358.802z"/>
<g style="display:inline;">
	<path style="fill:#8E3925;" d="M598.149,218.268c-1.64,22.831-7.282,28.998-16.205,28.997c-7.32,0-13.383-10.103-13.121-12.465
		s2.887-16.27,4.986-17.057C575.909,216.956,598.149,218.268,598.149,218.268z"/>
	<path style="fill:#8E3925;" d="M577.26,242.405c1.451-2.912,2.342,6.34,2.364,5.234c0.372-19.436,17.017-4.965,18.329-26.484
		c1.119-18.348,1.276-18.508,1.771-27.423c0.984-17.714-9.306-36.506-47.164-36.216c-21.076,0.161-26.482,8.346-31.235,19.08
		c-8.851,19.993-1.706,45.674-1.706,45.674L577.26,242.405z"/>
	<path style="fill:#E5785C;" d="M515.831,234.025c0,7.292,6.354,24.1,10.299,29.128c1.683,2.145,4.005,7.017,9.345,8.636
		c4.858,1.473,11.876-4.693,11.876-2.069c0,2.848,1.837,4.531,3.879,4.531c24.271,0,36.267-26.143,36.267-43.955l-7.479-23.365
		c0-19.498-12.941-33.514-31.775-33.37c-18.835,0.144-34,12.986-34,32.484L515.831,234.025z"/>
	<path style="fill:#FFB287;" d="M513.75,205.291l0.253,7.745l0.673,21.003c0.715,20.457,5.303,39.355,30.137,39.145
		c24.792-0.168,31.442-30.179,30.769-49.625l-1.179-16.921c0-0.715,0-1.431-0.042-2.104c-0.506-25.381-10.818-34.683-29.042-34.683
		C520.442,169.851,513.076,185.803,513.75,205.291z"/>
	<g>
		<path style="fill:#E5785C;" d="M535.841,238.74c-3.535,0.005-6.542-1.993-6.386-4.029c0.057-0.742,0.797-1.636,2.182-0.983
			c0.636,0.299,2.354,0.65,4.18,0.638c1.826-0.011,2.816-0.378,3.848-0.688c2.249-0.675,2.958,0.21,3.015,0.951
			C542.837,236.662,539.376,238.7,535.841,238.74z"/>
	</g>
	<path style="fill:#E5785C;" d="M575.212,221.776c-0.515,7.267,3.179,13.509,8.252,13.942c5.073,0.433,9.603-5.107,10.118-12.373
		c0.515-7.267-2.313-12.924-7.336-13.821C581.222,208.626,575.727,214.509,575.212,221.776z"/>
	<path style="fill:#422B27;" d="M553.74,220.17c0,1.727-1.411,3.137-3.151,3.15c-1.74,0.013-3.151-1.376-3.151-3.102
		c0-1.727,1.411-3.137,3.151-3.15S553.74,218.444,553.74,220.17z"/>
	<path style="fill:#422B27;" d="M525.91,220.654c0,1.727-1.411,3.137-3.151,3.15s-3.151-1.376-3.151-3.102
		c0-1.727,1.411-3.137,3.151-3.15C524.499,217.538,525.91,218.927,525.91,220.654z"/>
	<path style="fill:#8E3925;" d="M578.179,207.735"/>
	<path style="fill:#8E3925;" d="M566.362,205.462"/>
	
		<line style="fill:none;stroke:#8E3925;stroke-width:3.9391;stroke-linecap:round;stroke-miterlimit:10;" x1="559.214" y1="207.338" x2="545.033" y2="207.053"/>
	
		<line style="fill:none;stroke:#8E3925;stroke-width:3.9391;stroke-linecap:round;stroke-miterlimit:10;" x1="527.43" y1="207.582" x2="515.219" y2="208.463"/>
	<path style="fill:#8E3925;" d="M582.849,203.986c0-11.043-4.946-20.907-12.655-27.362c3.717-4.617,5.065-11.519,4.272-12.153
		c-1.312-1.05-18.323-13.693-38.398-2.081c-13.747,7.952-20.038,13.29-17.685,18.933c-0.03,0.065-0.062,0.126-0.091,0.193
		c0.038-0.041,0.079-0.083,0.119-0.124c2.128,5.016,6.852,8.272,11.05,8.272c17.582,0,17.209-10.324,30.31-9.316
		c5.117,0.394,12.891,3.641,12.891,16.434c0,13.876,2.27,28.346,2.358,28.351c4.116,0.266,4.17-2.404,4.17-2.404
		c0-7.348,1.1-11.459,5.773-13.646L582.849,203.986z"/>
	<path style="fill:none;stroke:#E5785C;stroke-width:4.3003;stroke-linecap:round;stroke-miterlimit:10;" d="M530.947,250.828
		c2.048,1.445,5.171,1.678,7.876,1.676c2.706-0.001,7.076-0.237,9.133-1.685"/>
	<path style="opacity:0.6;fill:#C67560;" d="M513.75,205.291l0.253,7.745c1.093-5.43,17.982-6.556,36.586-5.841
		c11.113,0.463,22.526,1.268,22.905,5.841c-0.506-25.381-9.95-43.185-28.175-43.185C520.442,169.851,513.076,185.803,513.75,205.291
		z"/>
	<g>
		<path style="fill:#FCA903;" d="M515.638,193.667c2.745-2.105,5.605-1.052,18.308-1.052c14.396,0,29.091,2.105,40.913,5.69
			c11.964,3.613,20.968,8.749,23.614,14.652c1.237,0.911,3.158-10.783,3.343-19.19c0.029-0.47,0.029-0.911,0.029-1.352
			c0-3.315-0.412-6.601-1.237-9.773c-3.628-13.728-15.235-25.435-36.389-28.792c-0.085,0-0.171-0.043-0.213-0.043
			c-2.361-0.37-4.837-0.626-7.454-0.796c-0.925-0.057-1.821-0.086-2.717-0.086c-5.534-0.071-10.384,0.754-14.595,2.191
			c-0.299,0.1-0.598,0.199-0.882,0.328c-10.825,3.954-17.398,12.02-20.783,19.702C513.362,184.62,513.703,193.51,515.638,193.667z"
			/>
		<path style="fill:#D86619;" d="M501.337,188.929c4.366,0.211,9.232-0.23,14.302-0.076c-1.548,4.922-2.098,10.513-1.893,16.438l0,0
			C481.44,206.908,474.679,187.643,501.337,188.929z"/>
		<path style="fill:#FCA903;" d="M598.475,212.958c-2.646-5.903-11.651-11.039-23.614-14.652c-11.821-3.585-26.516-5.69-40.912-5.69
			c-12.703,0-15.563-1.053-18.308,1.052c-1.935-0.156-2.276-9.047,1.934-18.522c3.386-7.682,9.958-15.747,20.783-19.702
			c-9.189,5.676-10.086,20.57-10.712,25.264c-0.711,5.335,14.226,6.401,37.342,12.092
			C588.105,198.491,598.176,207.154,598.475,212.958z"/>
	</g>
	<path style="fill:#FFE14E;" d="M574.851,198.31c3.897-17.733,11.839-43.8-28.588-43.355c-41.636,0.457-31.112,40.263-31.112,40.263
		L574.851,198.31z"/>
	<path style="fill:#FFC229;" d="M493.883,189.177c10.532-0.262,14.105,4.766,36.244,11.972c16.795,5.476,33.15-0.28,44.725-2.839
		c-3.956-3.603-44.265-9.785-66.503-9.942C502.561,188.327,494.851,189.033,493.883,189.177z"/>
</g>
</svg>
